<svg width="29" height="30" viewBox="0 0 29 30" fill="none" xmlns="http://www.w3.org/2000/svg">
<path id="Vector" fill-rule="evenodd" clip-rule="evenodd" d="M21.9725 20.3043C23.8854 17.8371 24.7869 14.7336 24.4937 11.625C24.2004 8.5165 22.7344 5.63648 20.3939 3.57089C18.0534 1.5053 15.0142 0.409308 11.8945 0.50588C8.77492 0.602453 5.80925 1.88434 3.60086 4.09075C1.39056 6.29868 0.104993 9.26668 0.00615171 12.3899C-0.0926891 15.5131 1.00263 18.5566 3.0689 20.8999C5.13518 23.2433 8.01689 24.7103 11.1268 25.002C14.2367 25.2937 17.3408 24.388 19.8064 22.4697L19.8724 22.5387L26.3798 29.0503C26.5223 29.1928 26.6915 29.306 26.8777 29.3831C27.064 29.4603 27.2635 29.5 27.4651 29.5C27.6667 29.5 27.8663 29.4603 28.0525 29.3831C28.2387 29.306 28.4079 29.1928 28.5504 29.0503C28.693 28.9077 28.806 28.7384 28.8832 28.5521C28.9603 28.3658 29 28.1661 29 27.9645C29 27.7629 28.9603 27.5632 28.8832 27.3769C28.806 27.1906 28.693 27.0213 28.5504 26.8787L22.0415 20.3688L21.9725 20.3043ZM18.7878 6.26227C19.6539 7.11474 20.3428 8.13032 20.8146 9.25044C21.2864 10.3706 21.5319 11.5731 21.5368 12.7885C21.5418 14.004 21.3061 15.2085 20.8434 16.3324C20.3807 17.4563 19.7002 18.4775 18.841 19.337C17.9819 20.1965 16.9611 20.8773 15.8377 21.3402C14.7142 21.803 13.5102 22.0388 12.2952 22.0339C11.0802 22.0289 9.87818 21.7833 8.7585 21.3113C7.63883 20.8393 6.62365 20.1502 5.77153 19.2838C4.06862 17.5522 3.11865 15.2176 3.12853 12.7885C3.13842 10.3595 4.10737 8.03271 5.82431 6.31508C7.54126 4.59745 9.86709 3.62812 12.2952 3.61823C14.7233 3.60834 17.057 4.55869 18.7878 6.26227Z" fill="#A348F6"/>
</svg>
