<svg width="37" height="37" viewBox="0 0 37 37" fill="none" xmlns="http://www.w3.org/2000/svg">
<g filter="url(#filter0_d_40_1539)">
<path fill-rule="evenodd" clip-rule="evenodd" d="M7.56138 0.581475C7.17071 0.204147 6.64746 -0.00464128 6.10434 7.83054e-05C5.56122 0.00479789 5.04168 0.222648 4.65762 0.606707C4.27356 0.990767 4.05571 1.51031 4.05099 2.05343C4.04627 2.59655 4.25506 3.1198 4.63238 3.51047L15.5965 14.4745L4.63238 25.4386C4.43454 25.6297 4.27673 25.8583 4.16817 26.111C4.05961 26.3637 4.00247 26.6355 4.00008 26.9106C3.99769 27.1856 4.0501 27.4584 4.15425 27.713C4.25841 27.9675 4.41222 28.1988 4.60671 28.3933C4.8012 28.5878 5.03248 28.7416 5.28705 28.8457C5.54162 28.9499 5.81439 29.0023 6.08943 28.9999C6.36447 28.9975 6.63628 28.9404 6.88901 28.8318C7.14173 28.7233 7.3703 28.5655 7.56138 28.3676L18.5255 17.4035L29.4895 28.3676C29.8802 28.7449 30.4034 28.9537 30.9466 28.949C31.4897 28.9443 32.0092 28.7264 32.3933 28.3424C32.7774 27.9583 32.9952 27.4388 32.9999 26.8957C33.0046 26.3525 32.7959 25.8293 32.4185 25.4386L21.4545 14.4745L32.4185 3.51047C32.7959 3.1198 33.0046 2.59655 32.9999 2.05343C32.9952 1.51031 32.7774 0.990767 32.3933 0.606707C32.0092 0.222648 31.4897 0.00479789 30.9466 7.83054e-05C30.4034 -0.00464128 29.8802 0.204147 29.4895 0.581475L18.5255 11.5455L7.56138 0.581475Z" fill="#4E5A5B"/>
</g>
<defs>
<filter id="filter0_d_40_1539" x="0" y="0" width="37" height="37" filterUnits="userSpaceOnUse" color-interpolation-filters="sRGB">
<feFlood flood-opacity="0" result="BackgroundImageFix"/>
<feColorMatrix in="SourceAlpha" type="matrix" values="0 0 0 0 0 0 0 0 0 0 0 0 0 0 0 0 0 0 127 0" result="hardAlpha"/>
<feOffset dy="4"/>
<feGaussianBlur stdDeviation="2"/>
<feComposite in2="hardAlpha" operator="out"/>
<feColorMatrix type="matrix" values="0 0 0 0 0 0 0 0 0 0 0 0 0 0 0 0 0 0 0.25 0"/>
<feBlend mode="normal" in2="BackgroundImageFix" result="effect1_dropShadow_40_1539"/>
<feBlend mode="normal" in="SourceGraphic" in2="effect1_dropShadow_40_1539" result="shape"/>
</filter>
</defs>
</svg>
